# xmcd
#
# Track frame offsets: 
#        150
#        16656
#        40143
#        57162
#        76708
#        94689
#        116762
#        135651
#        159501
#        184691
#        198729
#
# Disc length: 3476 seconds
#
# Revision: 4
# Processed by: cddbd v1.5.2PL0 Copyright (c) Steve Scherf et al.
# Submitted via: ExactAudioCopy v0.99pb3
#
DISCID=840d920b
DTITLE=Beck - Midnite Vultures
DYEAR=1999
DGENRE=Alternative
TTITLE0=x Laws
TTITLE1=Nicotine and Gravy
TTITLE2=Mixed Bizness
TTITLE3=Get Real Paid
TTITLE4=Hollywood Freaks
TTITLE5=Peaches and Cream
TTITLE6=Broken Train
TTITLE7=Milk and Honey
TTITLE8=Beautiful Way
TTITLE9=Pressure Zone
TTITLE10=Debra
EXTD=
EXTT0=
EXTT1=
EXTT2=
EXTT3=
EXTT4=
EXTT5=
EXTT6=
EXTT7=
EXTT8=
EXTT9=
EXTT10=
PLAYORDER=
